<svg width="32" height="32" viewBox="0 0 32 32" fill="none" xmlns="http://www.w3.org/2000/svg">
<rect width="32" height="32" rx="16" fill="white"/>
<circle cx="16" cy="16" r="16" fill="#C4C4C4"/>
<circle cx="16" cy="16" r="8" fill="white"/>
<path d="M8 24L9 20H9.5H11.5L13 23L8 24Z" fill="white"/>
<path d="M16.0002 7.2002C17.3291 7.20097 18.6406 7.50271 19.8362 8.08277C21.0319 8.66284 22.0806 9.50616 22.9038 10.5495C23.7269 11.5928 24.3031 12.809 24.589 14.1067C24.8749 15.4045 24.8632 16.7502 24.5548 18.0429C24.2463 19.3355 23.6491 20.5415 22.8079 21.5703C21.9667 22.5991 20.9035 23.4241 19.6979 23.9832C18.4924 24.5424 17.1758 24.8213 15.8471 24.799C14.5184 24.7766 13.212 24.4536 12.0259 23.8542L11.8928 23.7827L7.8833 24.7837C7.80613 24.8031 7.72568 24.8055 7.64748 24.7908C7.56929 24.7761 7.49522 24.7446 7.43038 24.6985C7.36554 24.6524 7.31148 24.5927 7.27193 24.5237C7.23238 24.4547 7.20828 24.3779 7.2013 24.2986V24.2084L7.2167 24.1171L8.2177 20.1087L8.1484 19.9767C7.64627 18.9853 7.33647 17.9077 7.2354 16.801L7.2079 16.3808L7.2002 16.0002C7.20093 15.3967 7.2596 14.8104 7.3762 14.2413V14.2402C7.39072 14.1666 7.41998 14.0966 7.46223 14.0346C7.50447 13.9726 7.55883 13.9197 7.62202 13.8792C7.68522 13.8388 7.75595 13.8115 7.82996 13.799C7.90397 13.7866 7.97973 13.7892 8.0527 13.8068C8.3904 13.8948 8.507 14.2402 8.441 14.5449L8.4278 14.5988C8.10359 16.3692 8.40619 18.1973 9.2836 19.7688C9.33464 19.8599 9.35867 19.9637 9.3529 20.068L9.3375 20.1714L8.5059 23.4945L11.8323 22.6651C11.8999 22.6484 11.9701 22.6446 12.0391 22.6541L12.1392 22.6772L12.2349 22.7201C13.5355 23.4487 15.0197 23.7841 16.5073 23.6855C17.9948 23.587 19.4218 23.0587 20.6149 22.1649C21.808 21.271 22.716 20.05 23.2286 18.6501C23.7413 17.2502 23.8365 15.7316 23.5028 14.2786C23.169 12.8256 22.4207 11.5008 21.3485 10.4649C20.2764 9.42901 18.9266 8.72662 17.463 8.44301C15.9994 8.1594 14.485 8.30676 13.1035 8.8672C11.7221 9.42764 10.533 10.3771 9.6807 11.6002H12.1502C12.2961 11.6002 12.436 11.6581 12.5391 11.7613C12.6422 11.8644 12.7002 12.0043 12.7002 12.1502C12.7002 12.2961 12.6422 12.436 12.5391 12.5391C12.436 12.6423 12.2961 12.7002 12.1502 12.7002H8.8502C8.70433 12.7002 8.56443 12.6423 8.46129 12.5391C8.35814 12.436 8.3002 12.2961 8.3002 12.1502V8.8502C8.3002 8.70433 8.35814 8.56444 8.46129 8.46129C8.56443 8.35815 8.70433 8.3002 8.8502 8.3002C8.99606 8.3002 9.13596 8.35815 9.2391 8.46129C9.34225 8.56444 9.4002 8.70433 9.4002 8.8502V10.179C10.2251 9.24162 11.2406 8.49103 12.3787 7.97735C13.5169 7.46367 14.7515 7.19872 16.0002 7.2002ZM16.0002 13.2502C16.0002 13.1043 15.9422 12.9644 15.8391 12.8613C15.736 12.7581 15.5961 12.7002 15.4502 12.7002C15.3043 12.7002 15.1644 12.7581 15.0613 12.8613C14.9581 12.9644 14.9002 13.1043 14.9002 13.2502V17.6502C14.9002 17.7961 14.9581 17.936 15.0613 18.0391C15.1644 18.1423 15.3043 18.2002 15.4502 18.2002H18.7502C18.8961 18.2002 19.036 18.1423 19.1391 18.0391C19.2422 17.936 19.3002 17.7961 19.3002 17.6502C19.3002 17.5043 19.2422 17.3644 19.1391 17.2613C19.036 17.1581 18.8961 17.1002 18.7502 17.1002H16.0002V13.2502Z" fill="#503621"/>
</svg>
