<svg width="19" height="21" viewBox="0 0 19 21" fill="none" xmlns="http://www.w3.org/2000/svg">
<path fill-rule="evenodd" clip-rule="evenodd" d="M10.594 20.2579L10.582 20.2599L10.511 20.2949L10.491 20.2989L10.477 20.2949L10.406 20.2589C10.3953 20.2563 10.3873 20.2583 10.382 20.2649L10.378 20.2749L10.361 20.7029L10.366 20.7229L10.376 20.7359L10.48 20.8099L10.495 20.8139L10.507 20.8099L10.611 20.7359L10.623 20.7199L10.627 20.7029L10.61 20.2759C10.6073 20.2653 10.602 20.2593 10.594 20.2579ZM10.858 20.1449L10.844 20.1469L10.66 20.2399L10.65 20.2499L10.647 20.2609L10.665 20.6909L10.67 20.7029L10.678 20.7109L10.879 20.8029C10.8917 20.8063 10.9013 20.8036 10.908 20.7949L10.912 20.7809L10.878 20.1669C10.8747 20.1543 10.868 20.1469 10.858 20.1449ZM10.143 20.1469C10.1386 20.1443 10.1333 20.1434 10.1283 20.1445C10.1233 20.1456 10.1188 20.1487 10.116 20.1529L10.11 20.1669L10.076 20.7809C10.0767 20.7929 10.0823 20.8009 10.093 20.8049L10.108 20.8029L10.309 20.7099L10.319 20.7019L10.322 20.6909L10.34 20.2609L10.337 20.2489L10.327 20.2389L10.143 20.1469Z" fill="white"/>
<path fill-rule="evenodd" clip-rule="evenodd" d="M15.991 3.01009L3.39901 7.56309L7.59401 9.99109L11.293 6.29109C11.4806 6.10358 11.7351 5.99829 12.0004 5.99839C12.2656 5.99848 12.52 6.10395 12.7075 6.29159C12.895 6.47923 13.0003 6.73367 13.0002 6.99894C13.0001 7.26421 12.8946 7.51858 12.707 7.70609L9.00701 11.4061L11.437 15.6001L15.991 3.01009ZM16.314 0.76609C17.509 0.33309 18.667 1.49109 18.234 2.68609L12.952 17.2911C12.518 18.4891 10.882 18.6351 10.243 17.5321L7.02601 11.9741L1.46801 8.75709C0.365006 8.11809 0.511006 6.48209 1.70901 6.04809L16.314 0.76609Z" fill="white"/>
</svg>
